# xmcd
#
# Track frame offsets:
#	150
#	14222
#	29805
#	44532
#	61315
#	78577
#	92190
#	109075
#	123580
#	140672
#
# Disc length: 2049 seconds
#
# Revision: 0
# Processed by: cddbd v1.5.2PL0 Copyright (c) Steve Scherf et al.
# Submitted via: audiograbber 1.83.01
#
DISCID=9707ff0a
DTITLE=Skip Ewing - Greatest Hits
DYEAR=1900
DGENRE=
TTITLE0=Your Memory Wins Again
TTITLE1=I Don't Have Far To Fall
TTITLE2=Burnin' A Hole In My Heart
TTITLE3=The Gospel According To Luke
TTITLE4=The Coast Of Colorado
TTITLE5=It's You Again
TTITLE6=It Wasn't His Child
TTITLE7=If A Man Could Live On Love Alone
TTITLE8=I'm Your Man
TTITLE9=The Dotted Line
EXTD=
EXTT0=
EXTT1=
EXTT2=
EXTT3=
EXTT4=
EXTT5=
EXTT6=
EXTT7=
EXTT8=
EXTT9=
PLAYORDER=
